<?xml version="1.0" standalone="no"?>
<!DOCTYPE svg PUBLIC "-//W3C//DTD SVG 20010904//EN"
 "http://www.w3.org/TR/2001/REC-SVG-20010904/DTD/svg10.dtd">
<svg version="1.0" xmlns="http://www.w3.org/2000/svg"
 width="782.000000pt" height="619.000000pt" viewBox="0 0 782.000000 619.000000"
 preserveAspectRatio="xMidYMid meet">

<g transform="translate(0.000000,619.000000) scale(0.100000,-0.100000)"
fill="#000000" stroke="none">
<path d="M0 3095 l0 -3095 3910 0 3910 0 0 3095 0 3095 -840 0 -840 0 0 -52
c0 -74 -9 -102 -26 -87 -8 6 -14 19 -14 28 0 14 -2 14 -10 1 -5 -8 -10 -10
-10 -4 0 6 -16 19 -35 29 -39 22 -41 32 -1 14 31 -15 32 -14 41 34 l7 37
-1038 -1 -1039 0 50 -20 c104 -41 208 -144 211 -210 2 -34 2 -35 -51 40 -81
113 -189 168 -311 158 -59 -4 -139 -34 -167 -61 -7 -6 -30 -25 -52 -41 -35
-26 -33 -23 15 25 30 30 58 54 62 53 4 -2 8 2 8 7 0 6 19 19 42 30 42 18 14
19 -1889 19 l-1933 1 0 -3095z m2977 3022 c52 -28 89 -88 67 -110 -4 -3 -15 5
-26 18 -10 13 -29 27 -41 31 -12 4 -35 17 -52 29 -34 26 -93 44 -145 46 -29 1
-31 2 -12 8 38 10 174 -4 209 -22z m2201 8 c190 -60 302 -183 274 -300 -9 -37
-10 -38 -12 -10 -1 26 -3 27 -10 10 -7 -17 -9 -17 -9 -2 -1 9 -5 17 -10 17 -5
0 -12 17 -16 37 -13 69 -37 113 -88 159 -66 59 -105 75 -202 81 -73 5 -86 2
-145 -25 -36 -16 -74 -39 -84 -51 -23 -26 -46 -27 -46 -3 0 32 84 97 136 105
75 11 137 6 212 -18z m1025 -262 c31 -40 74 -99 94 -131 20 -31 40 -59 43 -62
12 -8 70 -110 63 -110 -3 0 -14 10 -25 23 -11 12 -29 33 -41 47 -12 14 -40 46
-61 73 -21 26 -44 47 -51 47 -8 0 -22 11 -33 25 -11 13 -22 21 -26 17 -4 -3
-4 2 0 13 4 11 4 17 -1 13 -17 -16 -69 120 -58 150 5 13 9 11 22 -8 9 -14 42
-57 74 -97z m-534 -97 c85 -16 311 -149 311 -184 0 -7 5 -10 10 -7 6 3 10 -1
10 -9 0 -9 5 -16 10 -16 6 0 10 -4 10 -10 0 -5 -24 5 -52 22 -29 17 -60 31
-68 31 -8 0 -23 10 -33 21 -10 12 -16 15 -12 9 4 -8 0 -13 -9 -13 -9 0 -16 4
-16 8 0 4 -12 13 -27 20 -33 15 -47 23 -135 82 -37 25 -68 51 -68 58 0 9 5 10
18 4 9 -5 32 -12 51 -16z m-816 -2 c6 -7 25 -14 152 -59 28 -9 82 -34 120 -55
39 -21 90 -49 115 -62 69 -37 267 -165 300 -195 8 -7 39 -31 68 -54 116 -88
333 -307 426 -428 63 -83 98 -133 86 -126 -6 3 -7 0 -4 -9 3 -9 11 -13 17 -9
6 4 7 1 2 -7 -4 -7 -3 -15 2 -19 6 -3 14 -17 17 -31 7 -23 6 -23 -13 5 -92
135 -215 279 -351 411 -234 228 -426 363 -740 522 -197 100 -236 122 -214 122
6 0 14 -3 17 -6z m-224 -71 c38 -45 53 -83 32 -83 -9 0 -21 14 -78 89 -21 26
-21 41 -2 41 4 0 26 -21 48 -47z m344 -57 c18 -9 56 -24 84 -35 29 -12 70 -31
90 -44 21 -13 63 -36 93 -51 225 -116 578 -422 746 -647 78 -104 159 -227 181
-274 7 -16 22 -43 33 -60 11 -16 24 -39 30 -50 5 -11 14 -27 19 -35 18 -30 59
-150 52 -150 -5 0 -23 28 -41 63 -185 351 -348 566 -601 793 -214 193 -366
298 -634 437 -93 49 -137 76 -117 73 19 -3 48 -12 65 -20z m-86 -138 c15 -7
46 -24 68 -38 22 -15 72 -44 112 -65 40 -22 71 -40 69 -42 -5 -5 -159 57 -176
71 -8 7 -30 18 -47 26 -18 7 -33 17 -33 22 0 6 -6 8 -13 5 -7 -3 -24 4 -38 14
l-24 19 27 0 c15 0 40 -5 55 -12z m-30 -64 c-3 -3 -12 -4 -19 -1 -8 3 -5 6 6
6 11 1 17 -2 13 -5z m-115 -82 c39 -18 82 -48 113 -80 47 -49 81 -99 73 -107
-2 -3 -37 28 -78 67 -100 97 -175 132 -269 126 -84 -4 -137 -35 -166 -97 -24
-49 -37 -54 -24 -9 5 18 9 34 9 35 0 13 77 83 91 83 10 0 20 3 22 8 3 4 41 6
86 5 64 -2 93 -8 143 -31z m2104 -45 c63 -93 116 -205 112 -235 -3 -26 -4 -26
-23 13 -12 22 -34 60 -50 85 -65 102 -108 201 -88 200 5 0 27 -29 49 -63z
m-3340 1 c8 -16 13 -35 11 -41 -2 -7 -11 4 -20 24 -8 20 -20 40 -26 43 -6 4
-11 12 -11 18 0 16 29 -12 46 -44z m478 -23 c-4 -8 -11 -15 -16 -15 -6 0 -5 6
2 15 7 8 14 15 16 15 2 0 1 -7 -2 -15z m1396 -47 c0 -5 -6 -8 -14 -8 -9 0 -12
7 -9 21 4 16 8 17 14 7 5 -7 9 -16 9 -20z m-1360 12 c0 -5 -4 -10 -10 -10 -5
0 -10 5 -10 10 0 6 5 10 10 10 6 0 10 -4 10 -10z m1033 -26 c76 -38 165 -104
218 -161 52 -55 89 -116 66 -107 -8 3 -20 16 -27 30 -8 14 -16 20 -20 14 -4
-6 -12 1 -20 15 -18 33 -127 129 -213 188 -78 53 -79 58 -4 21z m-1112 7 c-11
-7 -12 -14 0 -39 7 -17 17 -28 21 -26 4 3 8 0 8 -6 0 -20 -24 -5 -38 24 -15
30 -10 56 10 56 10 0 10 -2 -1 -9z m1518 -22 c-16 -10 -23 -4 -14 10 3 6 11 8
17 5 6 -4 5 -9 -3 -15z m21 -28 c0 -6 -4 -13 -10 -16 -5 -3 -10 1 -10 9 0 9 5
16 10 16 6 0 10 -4 10 -9z m51 -58 c-9 -16 -10 -14 -11 12 0 21 3 26 11 18 8
-8 8 -16 0 -30z m-1563 -31 c2 -8 -5 -11 -20 -8 -12 3 -25 5 -28 5 -3 1 2 6
10 11 18 11 32 8 38 -8z m1617 -10 c-8 -2 -15 -8 -15 -13 0 -6 -4 -8 -9 -5 -5
3 -7 15 -4 25 4 17 8 18 24 8 16 -10 17 -13 4 -15z m-111 -23 c-3 -5 -10 -7
-15 -3 -5 3 -7 10 -3 15 3 5 10 7 15 3 5 -3 7 -10 3 -15z m-1474 -50 c0 -5 -7
-9 -15 -9 -9 0 -12 6 -9 15 6 15 24 11 24 -6z m1467 -46 c-2 -16 -4 -5 -4 22
0 28 2 40 4 28 2 -13 2 -35 0 -50z m-1533 32 c-9 -14 -17 -25 -19 -25 -1 0 0
11 3 25 2 14 11 25 18 25 12 0 11 -5 -2 -25z m1741 15 c8 -13 -5 -13 -25 0
-13 8 -13 10 2 10 9 0 20 -4 23 -10z m67 -41 c-4 -24 -1 -30 9 -27 8 3 13 12
11 19 -2 8 0 11 4 6 4 -4 9 -17 11 -28 3 -18 -1 -20 -19 -15 -13 3 -26 6 -30
6 -5 0 -8 7 -8 15 0 8 -12 22 -27 30 -16 9 -21 14 -13 12 8 -2 24 -1 35 4 31
12 32 11 27 -22z m683 -16 c38 -11 158 -95 217 -151 45 -43 57 -60 52 -76 -3
-14 -2 -17 4 -8 7 11 11 10 20 -1 20 -23 -24 -14 -51 11 -28 26 -42 28 -33 6
6 -15 4 -15 -11 -3 -78 60 -113 95 -109 105 3 7 -3 18 -12 26 -15 12 -16 11
-3 -4 7 -10 9 -18 3 -18 -13 0 -33 25 -26 33 6 6 -104 81 -120 82 -5 0 -11 5
-13 12 -3 9 4 9 29 2 18 -6 42 -13 53 -16z m-2496 -60 c1 -9 -6 -7 -19 4 -20
18 -28 39 -10 28 6 -3 10 0 11 7 1 15 17 -21 18 -39z m55 21 c11 -27 7 -37 -9
-24 -16 14 -20 40 -6 40 5 0 12 -7 15 -16z m26 6 c0 -5 -5 -10 -11 -10 -5 0
-7 5 -4 10 3 6 8 10 11 10 2 0 4 -4 4 -10z m37 -12 c-3 -8 -6 -5 -6 6 -1 11 2
17 5 13 3 -3 4 -12 1 -19z m1775 5 c-8 -3 -10 -9 -3 -17 6 -7 4 -18 -5 -30
-11 -16 -14 -17 -14 -4 0 9 -8 19 -17 23 -17 6 -17 7 1 21 11 8 27 14 35 13
11 0 12 -2 3 -6z m-1953 -77 c6 -26 7 -54 3 -67 -9 -22 -9 -22 -20 9 -6 17 -8
40 -5 51 3 12 1 21 -5 21 -5 0 -13 7 -16 16 -3 8 -2 12 4 9 6 -3 10 -1 10 5 0
25 18 -3 29 -44z m-132 38 c-3 -3 -12 -4 -19 -1 -8 3 -5 6 6 6 11 1 17 -2 13
-5z m270 -26 c-3 -8 -6 -5 -6 6 -1 11 2 17 5 13 3 -3 4 -12 1 -19z m1856 8 c4
-10 0 -12 -14 -9 -22 6 -26 23 -5 23 8 0 16 -6 19 -14z m-2087 -17 c19 -22 19
-22 -3 -8 -13 8 -23 17 -23 21 0 12 6 9 26 -13z m304 11 c0 -5 -4 -10 -9 -10
-12 0 -22 -32 -31 -100 l-7 -55 -2 47 c-1 48 24 128 40 128 5 0 9 -4 9 -10z
m69 -26 c-9 -11 -15 -12 -23 -4 -8 8 -6 15 9 26 23 17 34 2 14 -22z m-212 -16
c-3 -7 -5 -2 -5 12 0 14 2 19 5 13 2 -7 2 -19 0 -25z m1873 20 c0 -5 -9 -8
-19 -8 -11 0 -22 3 -24 8 -3 4 6 7 19 7 13 0 24 -3 24 -7z m66 -15 c-8 -8 -36
5 -36 17 0 7 6 7 21 0 11 -7 18 -14 15 -17z m-1893 -18 c4 -8 2 -17 -3 -20 -6
-4 -10 3 -10 14 0 25 6 27 13 6z m1187 -67 c0 -11 -50 21 -72 46 -27 30 -22
28 27 -6 25 -18 45 -36 45 -40z m636 45 c-7 -7 -26 7 -26 19 0 6 6 6 15 -2 9
-7 13 -15 11 -17z m114 -9 c0 -8 -7 -14 -15 -14 -10 0 -15 10 -15 26 0 22 2
25 15 14 8 -7 15 -19 15 -26z m-57 -11 c-7 -2 -19 -2 -25 0 -7 3 -2 5 12 5 14
0 19 -2 13 -5z m75 -32 c27 -22 27 -27 5 -27 -10 -1 -27 -5 -38 -9 -19 -8 -19
-8 -2 12 9 11 17 22 17 26 0 3 -8 8 -17 10 -15 4 -15 5 -2 6 9 0 26 -7 37 -18z
m-724 -6 c11 -8 18 -17 15 -19 -2 -3 -15 4 -29 14 -14 11 -20 20 -15 19 6 0
19 -6 29 -14z m571 -125 c21 -17 32 -30 26 -30 -15 0 -161 146 -161 161 0 6
22 -15 49 -45 26 -31 65 -70 86 -86z m-1708 108 c-3 -8 -6 -5 -6 6 -1 11 2 17
5 13 3 -3 4 -12 1 -19z m-26 -38 c-13 -11 -28 -20 -35 -20 -6 0 3 9 19 19 39
25 46 25 16 1z m1927 -19 c-7 -9 -13 -17 -14 -19 -1 -2 -1 8 -1 22 0 17 4 23
14 19 11 -4 11 -8 1 -22z m-673 1 c-3 -3 -11 0 -18 7 -9 10 -8 11 6 5 10 -3
15 -9 12 -12z m415 -47 c14 -19 14 -19 -2 -6 -10 7 -18 18 -18 24 0 6 1 8 3 6
1 -2 9 -13 17 -24z m-770 -145 c133 -167 352 -525 333 -543 -3 -4 -1 -7 6 -7
7 0 11 -8 9 -17 -1 -10 2 -25 7 -33 5 -8 10 -17 11 -20 6 -31 19 -69 30 -86 7
-12 15 -39 17 -60 2 -22 8 -47 12 -57 4 -10 5 -20 3 -23 -3 -2 -10 8 -15 23
-127 352 -269 607 -511 923 l-26 35 28 -25 c15 -14 58 -63 96 -110z m471 89
c16 -17 29 -39 29 -48 0 -12 -5 -10 -20 9 -10 14 -31 35 -47 47 -23 19 -25 23
-10 23 11 0 32 -14 48 -31z m-1626 -31 l40 -42 -38 28 c-20 15 -42 24 -49 20
-6 -4 -8 -3 -5 3 4 6 -8 18 -26 28 l-32 16 35 -5 c23 -4 48 -20 75 -48z m211
15 c-10 -10 -19 5 -10 18 6 11 8 11 12 0 2 -7 1 -15 -2 -18z m-36 -3 c0 -5 -5
-10 -11 -10 -5 0 -7 5 -4 10 3 6 8 10 11 10 2 0 4 -4 4 -10z m155 -10 c3 -5 1
-10 -4 -10 -6 0 -11 5 -11 10 0 6 2 10 4 10 3 0 8 -4 11 -10z m135 -27 c13
-14 13 -14 -7 -4 -12 6 -31 11 -42 11 -12 0 -21 5 -21 10 0 14 51 1 70 -17z
m-80 13 c0 -3 -4 -8 -10 -11 -5 -3 -10 -1 -10 4 0 6 5 11 10 11 6 0 10 -2 10
-4z m1521 -23 c5 -15 19 -86 30 -158 17 -109 44 -241 65 -317 3 -10 1 -18 -5
-18 -6 0 -11 9 -11 20 0 11 -5 20 -12 20 -6 0 -9 3 -6 6 4 3 0 21 -8 39 -26
62 -84 435 -67 435 2 0 8 -12 14 -27z m324 7 c3 -5 1 -10 -4 -10 -6 0 -11 5
-11 10 0 6 2 10 4 10 3 0 8 -4 11 -10z m-2020 -40 c8 -13 -5 -13 -25 0 -13 8
-13 10 2 10 9 0 20 -4 23 -10z m-270 -20 c3 -5 2 -10 -4 -10 -5 0 -13 5 -16
10 -3 6 -2 10 4 10 5 0 13 -4 16 -10z m509 1 c4 -5 -3 -7 -14 -4 -23 6 -26 13
-6 13 8 0 17 -4 20 -9z m-10 -27 c4 -9 4 -19 1 -22 -3 -3 -5 0 -5 7 0 8 -7 10
-20 6 -15 -5 -18 -3 -14 9 8 21 30 20 38 0z m281 6 c3 -6 -1 -7 -9 -4 -18 7
-21 14 -7 14 6 0 13 -4 16 -10z m118 -125 c22 -28 14 -23 -26 18 -31 33 -57
61 -57 65 0 9 50 -40 83 -83z m1703 -62 c-3 -3 -11 8 -20 25 -8 16 -12 32 -9
36 4 3 13 -8 20 -25 7 -18 11 -34 9 -36z m-928 1 c33 -32 35 -35 12 -28 -30 8
-48 21 -61 46 -16 30 8 21 49 -18z m-1078 15 c0 -12 -54 -29 -95 -30 -57 -3
-101 -26 -115 -60 -15 -35 -7 -47 17 -28 9 8 14 9 10 2 -4 -6 -3 -14 3 -18 5
-3 10 1 10 9 0 9 5 16 12 16 6 0 21 8 32 18 21 17 21 17 4 -3 -22 -27 -16 -76
20 -155 30 -66 149 -312 331 -682 110 -225 126 -263 111 -253 -6 3 -7 -1 -4
-9 3 -9 11 -13 17 -9 6 3 2 -6 -9 -20 -10 -15 -23 -27 -27 -27 -5 0 -5 -5 -1
-11 4 -8 12 -3 21 12 l14 24 -7 -25 c-4 -14 -9 -31 -11 -37 -3 -7 -1 -13 5
-13 13 0 26 -75 16 -91 -4 -8 -11 -4 -20 12 -13 23 -19 15 -15 -18 4 -27 -18
-11 -47 35 -25 38 -262 533 -262 546 0 2 -90 185 -200 407 -110 222 -200 407
-200 412 0 4 88 6 195 5 107 -2 195 -6 195 -9z m1010 -99 c0 -14 -28 -1 -34
16 -4 12 -2 12 14 4 11 -6 20 -15 20 -20z m917 -24 c39 -19 57 -34 72 -65 29
-55 26 -62 -7 -21 -16 18 -37 35 -48 37 -56 12 -75 14 -139 16 -41 2 -73 -1
-78 -7 -5 -7 -7 -5 -4 4 2 8 18 25 37 38 43 29 101 28 167 -2z m-726 -13 c12
-16 12 -17 -2 -6 -9 7 -20 9 -24 5 -5 -4 -5 -1 -1 6 9 16 11 15 27 -5z m-646
-64 c60 -11 142 -46 131 -56 -3 -3 5 -14 17 -23 12 -10 18 -22 14 -26 -4 -5
-12 -3 -16 4 -8 14 -81 23 -81 11 0 -5 21 -23 48 -40 42 -30 74 -60 68 -66 -1
-1 -31 9 -66 23 -113 46 -235 23 -321 -61 -24 -23 -38 -31 -42 -23 -15 40 63
115 149 142 41 13 53 21 45 29 -8 8 -32 7 -91 -4 -64 -13 -77 -13 -69 -2 6 7
8 13 3 13 -5 0 0 8 11 17 19 15 19 15 -7 9 -35 -8 -35 3 -2 28 50 36 110 43
209 25z m-1661 -245 c5 -14 4 -15 -9 -4 -17 14 -19 20 -6 20 5 0 12 -7 15 -16z
m2974 -35 c-10 -5 -32 -5 -55 0 -38 8 -37 8 17 9 37 0 49 -3 38 -9z m168 -146
c-15 -4 -16 -7 -5 -14 11 -7 11 -9 -3 -9 -18 0 -23 11 -11 23 3 4 13 6 22 6
12 -1 11 -3 -3 -6z m64 -29 c0 -2 -9 0 -20 6 -11 6 -20 13 -20 16 0 2 9 0 20
-6 11 -6 20 -13 20 -16z m-325 -215 c33 -15 71 -40 85 -54 23 -24 20 -24 -65
14 -50 21 -113 45 -142 52 -29 7 -50 16 -47 20 9 15 110 -4 169 -32z m200 -8
c5 -3 23 -4 39 -2 18 2 26 -1 22 -8 -13 -21 -106 -3 -106 20 0 8 23 3 45 -10z
m99 4 c-4 -8 -11 -12 -16 -9 -6 4 -5 10 3 15 19 12 19 11 13 -6z m-1410 -40
c59 -28 143 -135 107 -135 -6 0 -11 4 -11 8 0 18 -75 85 -114 103 -24 11 -66
19 -101 19 -43 1 -54 4 -40 10 33 14 125 11 159 -5z m-299 -355 c3 -5 1 -10
-4 -10 -6 0 -11 5 -11 10 0 6 2 10 4 10 3 0 8 -4 11 -10z m1220 -31 c11 -17
-1 -21 -15 -4 -8 9 -8 15 -2 15 6 0 14 -5 17 -11z m1135 -59 c58 -30 49 -40
-16 -18 -31 10 -69 20 -85 21 -47 3 -33 17 16 17 26 0 63 -9 85 -20z m-2336
-41 c-3 -5 -10 -7 -15 -3 -5 3 -7 10 -3 15 3 5 10 7 15 3 5 -3 7 -10 3 -15z
m48 12 c8 11 9 11 6 1 -4 -16 -22 -18 -24 -2 -2 7 -1 6 3 -1 4 -8 8 -7 15 2z
m2171 -8 c-7 -2 -19 -2 -25 0 -7 3 -2 5 12 5 14 0 19 -2 13 -5z m82 -30 c11
-7 17 -13 14 -13 -9 0 -69 31 -69 35 0 6 33 -7 55 -22z m-2724 -133 c-25 -22
-57 -25 -81 -10 -12 7 -8 10 15 11 17 0 39 4 50 9 34 15 41 10 16 -10z m673
-2 c-15 -7 -28 -7 -40 1 -16 9 -12 10 21 10 35 0 37 -2 19 -11z"/>
<path d="M6531 4834 c6 -15 89 -88 94 -83 2 3 1 9 -3 15 -11 16 -95 79 -91 68z"/>
</g>
</svg>
