<?xml version="1.0" standalone="no"?>
<!DOCTYPE svg PUBLIC "-//W3C//DTD SVG 20010904//EN"
 "http://www.w3.org/TR/2001/REC-SVG-20010904/DTD/svg10.dtd">
<svg version="1.0" xmlns="http://www.w3.org/2000/svg"
 width="170.000000pt" height="200.000000pt" viewBox="0 0 256.000000 100.000000"
 preserveAspectRatio="xMidYMid meet">

<g transform="translate(0.000000,100.000000) scale(0.100000,-0.100000)"
fill="#000000" stroke="none">
<path d="M177 963 c-11 -10 -8 -20 9 -38 15 -15 15 -18 -5 -39 -13 -14 -19
-29 -15 -39 4 -12 -3 -22 -25 -34 -17 -10 -30 -25 -28 -33 1 -8 -8 -24 -21
-34 -28 -23 -27 -33 18 -191 49 -174 140 -324 243 -404 54 -41 171 -101 197
-101 8 1 -6 9 -32 19 -26 10 -54 26 -63 35 -22 21 -16 20 45 -8 29 -14 59 -22
68 -19 10 4 13 2 8 -6 -6 -8 0 -10 21 -6 l28 5 -30 -15 -30 -16 48 6 c27 4 83
3 125 -1 76 -8 77 -9 32 -16 -31 -4 -20 -5 35 -3 159 8 318 42 323 69 4 17
-15 19 -141 18 -43 -1 -58 2 -54 11 18 44 19 47 5 47 -8 0 -28 -11 -44 -25
-35 -30 -28 -29 -103 -6 -80 25 -149 70 -211 138 -83 91 -115 172 -129 334 -4
52 -9 84 -10 72 -1 -25 -16 -31 -24 -10 -3 6 -6 -1 -6 -18 0 -20 2 -26 8 -16
14 21 21 -1 24 -73 1 -36 4 -66 7 -66 9 0 32 -109 25 -120 -3 -5 6 -17 19 -26
26 -17 96 -107 96 -123 0 -14 51 -48 82 -56 15 -4 34 -15 44 -26 9 -10 25 -19
34 -19 9 0 34 -9 56 -20 30 -15 34 -19 17 -20 -12 0 -44 7 -70 16 -30 10 -62
14 -90 10 -25 -3 -43 -2 -43 4 0 6 -9 10 -20 10 -13 0 -20 7 -20 20 0 15 -7
20 -29 20 -30 0 -49 15 -36 28 4 4 10 1 12 -5 3 -7 14 -13 25 -13 21 0 21 0 3
20 -11 12 -51 37 -89 56 -62 31 -70 38 -20 18 29 -12 11 30 -19 44 -29 14 -35
27 -14 35 18 7 -16 40 -45 43 -13 1 -26 3 -31 3 -4 1 -12 13 -17 27 -6 14 -14
23 -18 20 -5 -3 -9 1 -9 8 0 8 6 12 14 9 16 -6 17 9 1 25 -9 9 -9 12 0 12 7 0
12 -4 12 -10 0 -5 7 -10 15 -10 19 0 20 24 2 39 -11 8 -18 6 -32 -9 -22 -25
-35 -26 -36 -2 0 12 -3 11 -10 -7 -6 -16 -6 -28 2 -37 6 -7 8 -17 5 -23 -6 -9
21 -24 33 -17 3 2 11 -7 18 -20 14 -29 8 -30 -34 -4 -18 11 -33 28 -33 38 0 9
-11 34 -25 54 -21 31 -22 38 -10 48 15 13 19 8 16 -22 -1 -10 3 -18 10 -18 7
0 9 10 7 24 -4 17 -1 23 9 19 12 -5 18 8 14 30 -1 5 9 5 21 2 22 -7 22 -7 4 8
-18 13 -22 13 -38 -8 -12 -15 -25 -21 -38 -18 -28 7 -25 31 5 45 19 9 23 16
19 35 -5 17 -2 23 9 23 9 0 22 6 29 13 17 17 96 46 132 49 16 1 31 8 33 15 4
10 20 12 57 8 29 -3 43 -2 33 3 -10 4 -18 12 -17 16 1 5 -29 21 -66 37 -36 16
-74 35 -83 42 -9 8 -28 17 -43 21 -16 3 -28 13 -28 21 0 8 -6 15 -12 16 -7 1
-22 2 -33 3 -13 1 -21 9 -23 26 -2 14 -8 30 -13 35 -7 7 -8 4 -4 -7 6 -14 2
-18 -15 -18 -19 0 -20 2 -10 15 12 14 0 22 -13 8z m111 -120 c6 -19 -25 -16
-32 3 -4 11 -1 14 11 12 9 -2 18 -9 21 -15z m-41 -9 c-3 -3 -12 -4 -19 -1 -8
3 -5 6 6 6 11 1 17 -2 13 -5z m83 -10 c0 -3 -5 -14 -11 -26 -10 -19 -9 -19 20
-13 20 4 31 3 31 -4 0 -6 5 -11 11 -11 5 0 7 5 4 10 -4 6 10 10 34 10 29 0 41
-4 41 -15 0 -21 -28 -33 -117 -48 -43 -8 -89 -19 -101 -26 -12 -6 -28 -11 -35
-10 -6 1 -25 -1 -41 -6 -29 -8 -51 8 -39 29 4 5 1 6 -6 2 -7 -5 -16 -18 -21
-30 -9 -20 -9 -20 -9 0 -2 40 37 57 65 29 22 -22 35 -18 29 8 -5 20 -1 23 48
35 30 7 63 9 73 5 18 -7 18 -6 2 11 -10 9 -18 21 -18 25 0 4 -15 6 -32 4 -32
-3 -31 -2 7 11 45 16 65 19 65 10z m-100 -184 c0 -5 -7 -10 -16 -10 -8 0 -12
5 -9 10 3 6 10 10 16 10 5 0 9 -4 9 -10z m-70 -141 c6 -22 13 -48 16 -57 2 -9
-7 5 -20 32 -22 43 -25 66 -11 66 2 0 9 -18 15 -41z m172 -291 c66 -64 63 -80
-3 -20 -38 33 -143 182 -157 222 -3 8 19 -21 48 -65 29 -44 80 -106 112 -137z
m24 130 c0 -13 4 -31 9 -41 7 -16 5 -16 -18 -6 -25 11 -51 52 -40 63 4 3 16 6
27 6 15 0 21 -7 22 -22z m121 -102 c4 -4 -1 -4 -11 0 -15 6 -17 4 -11 -6 6 -9
4 -11 -5 -5 -8 5 -31 8 -51 6 -21 -1 -40 2 -43 8 -7 11 110 8 121 -3z m247
-132 c9 -3 16 -10 16 -16 0 -5 -6 -6 -12 -1 -7 4 -22 6 -33 5 -17 -2 -17 -1
-5 7 18 13 15 12 34 5z m219 -11 c-13 -2 -35 -2 -50 0 -16 2 -5 4 22 4 28 0
40 -2 28 -4z m144 1 c-3 -3 -12 -4 -19 -1 -8 3 -5 6 6 6 11 1 17 -2 13 -5z"/>
<path d="M232 733 c-13 -5 -7 -23 9 -23 6 0 8 4 5 9 -4 5 0 12 6 14 7 3 9 5 3
5 -5 0 -16 -2 -23 -5z"/>
<path d="M1236 914 l-49 -26 29 -23 29 -23 3 -201 3 -201 -26 -24 c-14 -13
-22 -27 -18 -29 12 -7 161 -2 169 6 3 3 -10 13 -30 21 l-36 15 0 255 c0 198
-3 256 -12 256 -7 -1 -35 -12 -62 -26z"/>
<path d="M2133 919 c-50 -23 -52 -31 -18 -53 l25 -16 0 -210 c0 -199 -1 -210
-20 -222 -11 -7 -20 -19 -20 -27 0 -11 11 -12 53 -7 28 3 67 6 85 6 40 0 42
16 3 25 -24 5 -30 12 -33 41 -4 38 14 74 38 74 8 0 14 -4 14 -9 0 -4 23 -38
51 -75 47 -60 55 -66 88 -66 49 0 83 10 78 24 -2 6 -15 12 -30 14 -27 3 -110
85 -137 136 -14 27 -13 29 20 57 19 16 46 32 60 35 54 13 60 16 60 30 0 11
-18 14 -84 14 -89 0 -117 -13 -69 -31 l28 -10 -50 -44 c-28 -24 -54 -43 -60
-41 -6 2 -11 76 -13 189 -2 140 -6 187 -15 186 -6 0 -31 -9 -54 -20z"/>
<path d="M770 891 c0 -5 11 -16 25 -25 l25 -17 -2 -212 c-3 -209 -3 -212 -26
-222 -12 -5 -21 -14 -19 -18 4 -14 190 -14 194 -1 2 7 -12 15 -31 18 -19 4
-37 14 -40 22 -3 9 -6 56 -6 105 l0 89 46 0 c56 0 80 -12 88 -45 10 -40 26
-29 26 18 0 23 3 59 6 80 5 29 3 37 -9 37 -9 0 -17 -10 -19 -22 -2 -19 -12
-24 -56 -31 -81 -13 -82 -12 -82 98 l0 95 78 0 c84 0 89 -2 115 -43 24 -37 37
-26 37 34 l0 49 -175 0 c-96 0 -175 -4 -175 -9z"/>
<path d="M1538 686 c-56 -20 -90 -45 -86 -64 6 -30 44 -26 69 7 24 32 56 40
77 19 16 -16 16 -88 0 -92 -99 -27 -130 -40 -148 -63 -26 -34 -25 -59 5 -88
28 -29 66 -32 119 -10 33 14 39 14 61 -1 23 -15 27 -15 62 3 45 24 47 36 7 43
l-29 5 -2 95 c-4 121 -7 134 -38 148 -33 15 -50 15 -97 -2z m72 -201 c0 -34
-5 -47 -19 -55 -57 -30 -113 10 -82 58 7 12 72 40 94 42 4 0 7 -20 7 -45z"/>
<path d="M1870 689 c-43 -18 -60 -40 -60 -79 0 -42 13 -57 80 -90 57 -28 80
-49 80 -71 0 -24 -15 -32 -62 -32 -31 0 -46 7 -74 34 l-34 33 0 -41 c0 -23 5
-45 10 -48 22 -14 119 -17 154 -5 47 15 73 63 59 106 -7 22 -27 39 -84 69 -62
33 -74 44 -74 65 0 22 5 25 42 28 35 3 47 -1 67 -22 33 -37 50 -34 42 6 -3 18
-10 36 -14 40 -14 14 -105 19 -132 7z"/>
<path d="M290 621 c0 -5 5 -13 10 -16 6 -3 10 -2 10 4 0 5 -4 13 -10 16 -5 3
-10 2 -10 -4z"/>
<path d="M390 523 c0 -10 5 -25 10 -33 8 -12 10 -9 10 12 0 15 -4 30 -10 33
-5 3 -10 -2 -10 -12z"/>
<path d="M1518 260 c3 -40 7 -50 22 -50 28 0 45 27 30 45 -7 8 -17 15 -23 15
-7 0 -7 -4 1 -12 17 -17 15 -38 -3 -38 -11 0 -15 12 -15 45 0 25 -3 45 -7 45
-5 0 -6 -22 -5 -50z"/>
<path d="M1677 290 c4 -15 0 -20 -13 -20 -18 -1 -18 -1 -1 -11 9 -5 17 -17 17
-24 0 -23 -30 -17 -40 8 -10 22 -10 22 -7 -3 2 -20 8 -26 32 -28 l30 -3 -3 51
c-2 27 -8 50 -12 50 -4 0 -6 -9 -3 -20z"/>
<path d="M1938 260 c2 -27 7 -50 10 -50 4 0 5 22 4 50 -2 27 -7 50 -10 50 -4
0 -5 -22 -4 -50z"/>
<path d="M2426 273 c-9 -9 -7 -51 3 -57 5 -3 11 8 13 25 5 29 -3 45 -16 32z"/>
<path d="M1330 265 c0 -2 5 -15 12 -29 9 -21 14 -24 25 -14 11 9 16 9 23 -2 6
-9 12 -5 24 19 9 17 12 31 7 31 -5 0 -11 -10 -15 -22 -5 -19 -8 -20 -15 -8 -5
8 -7 18 -5 22 3 4 1 8 -5 8 -5 0 -12 -10 -14 -22 l-4 -23 -8 23 c-6 18 -25 32
-25 17z"/>
<path d="M1450 256 c-17 -22 -5 -46 22 -45 17 1 18 2 6 6 -19 5 -25 43 -7 43
5 0 7 -5 3 -11 -4 -7 -2 -10 5 -8 7 3 12 9 12 14 0 17 -27 17 -41 1z"/>
<path d="M1740 263 c5 -2 8 -9 4 -14 -3 -5 0 -9 6 -9 15 0 7 23 -8 26 -7 1 -8
0 -2 -3z"/>
<path d="M1780 261 c0 -5 8 -19 18 -31 17 -21 19 -21 25 -6 4 11 3 15 -4 11
-6 -4 -13 2 -16 14 -5 20 -23 30 -23 12z"/>
<path d="M1870 255 c-17 -21 -5 -45 22 -44 15 0 18 3 8 6 -28 11 -35 43 -9 43
6 0 7 -4 4 -10 -3 -5 -1 -10 5 -10 14 0 8 22 -7 27 -5 2 -16 -3 -23 -12z"/>
<path d="M1980 255 c-13 -15 -7 -45 8 -45 5 0 7 11 4 25 -3 19 0 25 13 25 13
0 16 -6 12 -26 -4 -23 -3 -24 11 -10 13 12 13 18 2 30 -16 20 -34 20 -50 1z"/>
<path d="M2055 219 c0 -30 4 -49 12 -49 6 0 9 9 6 20 -4 13 0 20 10 20 8 0 20
7 27 15 16 20 -1 43 -33 43 -20 0 -22 -5 -22 -49z m45 21 c0 -11 -7 -20 -15
-20 -15 0 -21 21 -8 33 12 13 23 7 23 -13z"/>
<path d="M2136 263 c-6 -6 6 -53 13 -53 4 0 7 10 7 21 -1 12 5 24 12 26 7 3
12 -5 12 -21 0 -14 5 -26 10 -26 6 0 10 12 10 26 0 31 23 28 28 -4 2 -12 7
-22 12 -22 4 0 5 12 1 28 -7 24 -12 27 -54 28 -26 0 -49 -1 -51 -3z"/>
<path d="M2270 255 c-17 -21 -5 -45 22 -44 17 1 18 2 6 6 -19 5 -25 43 -7 43
5 0 7 -4 4 -10 -3 -5 -1 -10 5 -10 14 0 8 22 -7 27 -5 2 -16 -3 -23 -12z"/>
<path d="M2337 263 c-7 -6 5 -53 13 -53 5 0 6 8 3 19 -3 10 1 22 7 26 14 9 32
-14 25 -32 -2 -7 0 -13 6 -13 6 0 9 12 7 28 -2 22 -8 27 -30 28 -15 1 -29 -1
-31 -3z"/>
<path d="M1713 240 c1 -19 8 -25 27 -27 14 -1 18 0 9 3 -9 3 -21 15 -28 27
-11 22 -11 22 -8 -3z"/>
<path d="M2476 205 c4 -8 8 -15 10 -15 2 0 4 7 4 15 0 8 -4 15 -10 15 -5 0 -7
-7 -4 -15z"/>
<path d="M1647 150 c4 -14 0 -20 -10 -20 -19 0 -36 -29 -30 -47 3 -7 17 -13
31 -13 26 0 27 2 24 50 -2 27 -8 50 -12 50 -4 0 -6 -9 -3 -20z m3 -50 c0 -11
-7 -20 -15 -20 -8 0 -15 9 -15 20 0 11 7 20 15 20 8 0 15 -9 15 -20z"/>
<path d="M2018 134 c-3 -2 -3 -17 0 -34 3 -20 10 -30 21 -29 10 0 11 2 4 6
-16 6 -17 40 -1 45 8 3 6 6 -4 10 -9 4 -18 5 -20 2z"/>
<path d="M2218 134 c-3 -2 -3 -17 0 -34 3 -20 10 -30 21 -29 10 0 11 2 4 6
-16 6 -17 40 -1 45 8 3 6 6 -4 10 -9 4 -18 5 -20 2z"/>
<path d="M1340 115 c-13 -15 -7 -45 8 -45 5 0 7 11 4 25 -3 19 0 25 13 25 13
0 16 -6 13 -25 -6 -28 6 -34 16 -9 7 19 -10 44 -29 44 -7 0 -18 -7 -25 -15z"/>
<path d="M1417 123 c-7 -6 5 -53 13 -53 5 0 6 8 3 19 -3 10 1 22 7 26 14 9 32
-14 25 -32 -2 -7 0 -13 6 -13 6 0 9 12 7 28 -2 22 -8 27 -30 28 -15 1 -29 -1
-31 -3z"/>
<path d="M1504 115 c-10 -24 4 -45 28 -44 21 1 21 1 3 7 -11 4 -21 15 -23 25
-3 19 14 24 21 5 2 -7 8 -10 12 -6 10 10 -3 28 -21 28 -8 0 -17 -7 -20 -15z"/>
<path d="M1708 122 c-19 -4 -26 -52 -8 -52 6 0 10 9 10 19 0 11 6 21 13 24 17
6 5 14 -15 9z"/>
<path d="M1779 121 c8 -5 12 -18 8 -30 -6 -25 8 -29 17 -5 7 18 -10 44 -28 44
-6 0 -5 -4 3 -9z"/>
<path d="M1828 79 c2 -27 8 -49 12 -49 4 0 6 9 3 20 -4 15 0 20 15 20 23 0 37
27 22 45 -6 7 -20 13 -33 13 -20 0 -22 -4 -19 -49z m42 21 c0 -11 -7 -20 -15
-20 -15 0 -21 21 -8 33 12 13 23 7 23 -13z"/>
<path d="M1955 121 c-3 -7 0 -8 9 -5 9 3 16 2 16 -4 0 -5 -9 -12 -20 -15 -30
-8 -24 -27 9 -27 27 0 29 2 22 27 -8 29 -25 40 -36 24z"/>
<path d="M2115 121 c-3 -7 0 -8 9 -5 9 3 16 1 16 -4 0 -6 -9 -14 -20 -17 -30
-9 -24 -25 9 -25 27 0 29 2 22 27 -8 29 -25 40 -36 24z"/>
<path d="M2316 123 c-2 -2 -1 -16 2 -31 l6 -27 6 24 c8 34 30 39 30 7 0 -14 4
-26 8 -26 5 0 8 10 8 23 -1 13 5 22 14 22 9 0 15 -9 14 -22 0 -13 3 -23 8 -23
5 0 8 12 6 28 -3 25 -6 27 -50 28 -27 0 -50 -1 -52 -3z"/>
<path d="M2450 115 c-17 -21 -5 -45 22 -44 15 0 18 3 8 6 -28 11 -35 43 -9 43
6 0 7 -4 4 -10 -3 -5 -1 -10 5 -10 14 0 8 22 -7 27 -5 2 -16 -3 -23 -12z"/>
<path d="M1748 109 c-3 -9 -2 -22 2 -30 13 -19 18 -8 10 21 -4 19 -7 21 -12 9z"/>
<path d="M2270 95 c0 -14 5 -25 10 -25 6 0 10 11 10 25 0 14 -4 25 -10 25 -5
0 -10 -11 -10 -25z"/>
<path d="M648 33 c12 -2 30 -2 40 0 9 3 -1 5 -23 4 -22 0 -30 -2 -17 -4z"/>
</g>
</svg>
